HIERARCHY
ROOT Hips
{
	OFFSET -3.958830 18.904000 13.208200
	CHANNELS 6 Xposition Yposition Zposition Zrotation Yrotation Xrotation 
	JOINT LHipJoint
	{
		OFFSET 0.000000 0.000000 0.000000
		CHANNELS 3 Zrotation Yrotation Xrotation
		JOINT LeftUpLeg
		{
			OFFSET 1.800000 -1.400000 0.085000
			CHANNELS 3 Zrotation Yrotation Xrotation
			JOINT LeftLeg
			{
				OFFSET 2.215000 -6.000000 0.000000
				CHANNELS 3 Zrotation Yrotation Xrotation
				JOINT LeftFoot
				{
					OFFSET 2.500000 -6.900000 0.000000
					CHANNELS 3 Zrotation Yrotation Xrotation
					JOINT LeftToeBase
					{
						OFFSET 0.200000 -0.500000 1.950000
						CHANNELS 3 Zrotation Yrotation Xrotation
						End Site
						{
							OFFSET 0.000000 0.000000 0.000000
						}
					}
				}
			}
		}
	}
	JOINT RHipJoint
	{
		OFFSET 0.000000 0.000000 0.000000
		CHANNELS 3 Zrotation Yrotation Xrotation
		JOINT RightUpLeg
		{
			OFFSET -1.800000 -1.400000 0.085000
			CHANNELS 3 Zrotation Yrotation Xrotation
			JOINT RightLeg
			{
				OFFSET -2.215000 -6.000000 0.000000
				CHANNELS 3 Zrotation Yrotation Xrotation
				JOINT RightFoot
				{
					OFFSET -2.500000 -6.900000 0.000000
					CHANNELS 3 Zrotation Yrotation Xrotation
					JOINT RightToeBase
					{
						OFFSET -0.200000 -0.500000 1.950000
						CHANNELS 3 Zrotation Yrotation Xrotation
						End Site
						{
							OFFSET 0.000000 0.000000 0.000000
						}
					}
				}
			}
		}
	}
	JOINT LowerBack
	{
		OFFSET 0.000000 0.000000 0.000000
		CHANNELS 3 Zrotation Yrotation Xrotation
		JOINT Spine
		{
			OFFSET -0.087000 1.940000 -0.288900
			CHANNELS 3 Zrotation Yrotation Xrotation
			JOINT Spine1
			{
				OFFSET 0.000000 1.950000 0.060000
				CHANNELS 3 Zrotation Yrotation Xrotation
				JOINT Neck
				{
					OFFSET 0.000000 0.000000 0.000000
					CHANNELS 3 Zrotation Yrotation Xrotation
					JOINT Neck1
					{
						OFFSET 0.000000 1.600000 0.340000
						CHANNELS 3 Zrotation Yrotation Xrotation
						JOINT Head
						{
							OFFSET 0.000000 1.667000 -0.240000
							CHANNELS 3 Zrotation Yrotation Xrotation
							End Site
							{
								OFFSET 0.000000 0.000000 0.000000
							}
						}
					}
				}
				JOINT LeftShoulder
				{
					OFFSET 0.000000 0.000000 0.000000
					CHANNELS 3 Zrotation Yrotation Xrotation
					JOINT LeftArm
					{
						OFFSET 2.700000 1.550000 -0.730000
						CHANNELS 3 Zrotation Yrotation Xrotation
						JOINT LeftForeArm
						{
							OFFSET 5.450000 0.000000 0.000000
							CHANNELS 3 Zrotation Yrotation Xrotation
							JOINT LeftHand
							{
								OFFSET 3.450000 0.000000 0.000000
								CHANNELS 3 Zrotation Yrotation Xrotation
								JOINT LeftHandIndex1
								{
									OFFSET 0.750000 0.000000 0.000000
									CHANNELS 3 Zrotation Yrotation Xrotation
									End Site
									{
										OFFSET 0.000000 0.000000 0.000000
									}
								}
							}
						}
					}
				}
				JOINT RightShoulder
				{
					OFFSET 0.000000 0.000000 0.000000
					CHANNELS 3 Zrotation Yrotation Xrotation
					JOINT RightArm
					{
						OFFSET -2.700000 1.550000 -0.730000
						CHANNELS 3 Zrotation Yrotation Xrotation
						JOINT RightForeArm
						{
							OFFSET -5.450000 0.000000 0.000000
							CHANNELS 3 Zrotation Yrotation Xrotation
							JOINT RightHand
							{
								OFFSET -3.450000 0.000000 0.000000
								CHANNELS 3 Zrotation Yrotation Xrotation
								JOINT RightHandIndex1
								{
									OFFSET -0.750000 0.000000 0.000000
									CHANNELS 3 Zrotation Yrotation Xrotation
									End Site
									{
										OFFSET 0.000000 0.000000 0.000000
									}
								}
							}
						}
					}
				}
			}
		}
	}
}
MOTION
Frames: 10
Frame Time: 0.016667
-1.461030 16.181890 -5.221480 -3.292725 -12.502612 1.262508 -15.614872 8.464244 7.238552 39.781071 4.663169 -36.051120 -60.898517 24.872177 16.228455 1.369514 12.151325 0.649655 0.159760 -0.330040 0.191300 18.663895 -7.245678 3.686384 -35.789824 5.410319 -20.315171 50.156367 -19.336141 18.120864 -1.434170 -8.570604 1.445892 -0.171400 0.414570 0.335990 -4.027678 -0.839205 -10.471777 16.826752 0.332553 17.989007 -9.051928 4.252879 1.185789 4.363782 -1.950021 -11.492979 -5.487619 1.864436 37.647522 -7.383360 2.663070 -8.669980 -25.684622 -11.918327 4.420372 -40.180660 3.527038 -5.190217 -20.850418 -13.379675 -0.415572 -3.850582 2.735626 0.726940 0.193990 -0.015210 0.209320 16.085199 15.975188 8.591713 47.556036 3.695761 -6.259700 94.803846 45.048389 34.446106 2.119049 -1.788878 -0.327510 0.314290 0.162370 -0.250450 
-1.469790 16.144340 -5.217610 -3.238870 -12.635257 1.105266 -15.607139 8.430774 7.233667 40.065401 5.025785 -36.149906 -61.290221 25.746518 16.882716 1.416365 12.229754 0.621323 0.179190 -0.307280 0.200310 18.682234 -7.209429 3.744846 -36.583864 5.491442 -20.287477 51.272938 -19.626152 17.950551 -1.473349 -8.661305 1.411898 -0.169770 0.390180 0.354080 -4.074861 -0.794890 -10.505226 17.359956 0.238091 18.101127 -9.366276 4.269270 0.976884 4.493975 -1.753943 -11.494870 -5.115122 1.854086 38.063614 -7.719660 2.897700 -8.339530 -26.477291 -11.936204 4.450123 -40.088499 4.153048 -5.190747 -19.850753 -12.346607 -0.630006 -3.837994 2.762379 0.717320 0.190110 -0.002660 0.211770 16.542008 15.906288 8.561509 48.116846 3.570487 -6.337429 95.046436 45.290618 34.773129 2.127111 -1.815876 -0.298990 0.277600 0.147280 -0.247820 
-1.486200 16.056470 -5.214260 -2.990647 -12.816525 0.997603 -15.597844 8.338388 7.213557 40.503480 5.758493 -36.707665 -62.253625 27.699461 18.261644 1.527559 12.372682 0.577072 0.216740 -0.242830 0.204690 18.726914 -7.076270 3.899617 -38.668940 5.567502 -20.528028 54.304026 -20.285102 17.327938 -1.560884 -8.844465 1.350048 -0.154720 0.349720 0.367320 -4.174124 -0.756971 -10.560341 18.385979 -0.102113 18.229634 -9.770344 4.117231 0.627603 4.588679 -2.104315 -11.366228 -5.644369 2.484359 38.326646 -7.751980 3.296880 -8.058360 -27.496291 -11.372446 4.307133 -40.389133 5.322763 -5.350896 -18.506267 -10.803696 -0.911135 -3.807372 2.810525 0.685150 0.173990 0.019620 0.223080 17.281987 15.646149 8.419635 49.394108 3.520578 -6.349918 95.835714 45.760452 35.705951 2.153284 -1.865065 -0.244850 0.227830 0.113510 -0.227470 
-1.507220 15.953400 -5.219700 -2.909397 -12.930971 0.636790 -15.607437 8.301002 7.206555 41.100616 6.580504 -37.488149 -62.516524 30.304329 20.611614 1.595432 12.592886 0.507383 0.256370 -0.194940 0.246140 18.750527 -6.923230 4.041794 -40.713845 5.780534 -20.756250 57.653774 -21.163288 16.920229 -1.663379 -9.013102 1.306389 -0.137110 0.299970 0.360630 -4.209493 -0.826576 -10.632931 19.640873 -0.722457 19.173813 -9.951595 3.899668 -0.194317 4.805059 -2.533813 -11.159816 -6.264778 3.093469 38.489059 -8.495460 3.911680 -9.310570 -29.018242 -10.569460 3.988008 -40.621744 6.882405 -5.547101 -17.248753 -8.840660 -1.258973 -3.771342 2.789079 0.702810 0.143900 0.051140 0.221140 18.272696 15.317256 8.211121 50.516633 3.473017 -6.390245 96.752292 46.200402 36.806504 2.167065 -1.866746 -0.228820 0.217980 0.083960 -0.238880 
-1.529820 15.857010 -5.229370 -2.553356 -13.184041 0.322436 -15.634336 8.299166 7.192621 41.327570 7.401195 -38.388804 -62.244036 32.931664 23.138593 1.627081 12.815604 0.439232 0.256560 -0.191800 0.268520 18.752147 -6.771374 4.188985 -42.866309 6.110620 -21.243654 60.709890 -21.962339 16.587020 -1.753521 -9.129865 1.277410 -0.137260 0.270300 0.347120 -4.185024 -0.929409 -10.719351 20.395765 -1.051508 20.274736 -9.917485 3.937069 -1.108851 5.115270 -2.921547 -11.062628 -6.834051 3.573746 39.000701 -9.619790 4.439000 -11.337690 -30.197865 -9.750071 3.675819 -41.850798 8.380162 -5.938728 -14.584709 -7.568809 -1.499687 -3.758716 2.699347 0.753990 0.112490 0.086730 0.208000 18.766162 15.140201 8.063992 52.227612 3.708020 -6.521783 96.107381 46.493724 36.792691 2.174898 -1.809587 -0.246190 0.247660 0.088260 -0.257750 
-1.544540 15.775690 -5.236770 -2.206120 -13.618927 -0.184869 -15.679451 8.388031 7.185048 41.323170 8.053873 -39.059852 -61.391173 35.267813 25.736881 1.647077 13.009746 0.374231 0.251500 -0.205150 0.301300 18.719032 -6.621703 4.297888 -44.588103 6.580297 -21.356992 63.122963 -22.446590 16.205466 -1.825932 -9.166592 1.270566 -0.150000 0.227480 0.328270 -4.082109 -1.188965 -10.811445 21.187272 -1.318261 21.840025 -9.525410 4.136093 -2.171083 5.511882 -3.525260 -11.275963 -7.990839 4.136109 40.155186 -10.996750 4.787440 -13.751920 -31.671079 -9.280466 3.398275 -43.521280 9.798562 -6.353851 -11.484868 -6.458757 -1.636544 -3.734436 2.592841 0.823890 0.063380 0.132480 0.187460 19.444884 15.647166 8.334386 53.459328 3.525303 -6.725088 97.893713 47.097788 38.532272 2.198612 -1.734567 -0.267940 0.282570 0.095030 -0.283360 
-1.548640 15.712770 -5.249100 -2.052960 -14.045083 -0.819829 -15.723295 8.501660 7.181600 41.145862 8.471362 -39.619034 -59.916080 37.237591 28.493418 1.660077 13.162491 0.300695 0.279250 -0.185400 0.354990 18.677240 -6.485949 4.379104 -45.902135 7.136939 -21.129515 65.241181 -22.649618 15.685406 -1.902740 -9.152104 1.267659 -0.155790 0.145790 0.315780 -3.966853 -1.486164 -10.893209 22.257766 -1.615597 23.682210 -9.233149 4.445489 -3.062423 5.986907 -3.902031 -11.694171 -8.846423 4.702508 42.011712 -11.989580 5.003860 -16.858750 -32.992948 -9.231648 3.278018 -45.542751 11.077311 -6.941236 -8.117056 -6.064036 -1.645579 -3.673681 2.528138 0.907280 -0.013280 0.199010 0.165070 19.836457 16.438536 8.771565 54.885553 3.338788 -7.057758 100.149844 47.965880 40.769359 2.232696 -1.669085 -0.265730 0.289780 0.083920 -0.313440 
-1.551800 15.673990 -5.272310 -1.849795 -14.550271 -1.861414 -15.797798 8.708497 7.173384 40.907252 8.792219 -39.632973 -58.503939 38.713182 30.880420 1.648147 13.273618 0.225778 0.329890 -0.150030 0.410800 18.591961 -6.326033 4.428366 -46.746468 7.950923 -20.396426 66.714179 -22.432681 15.172149 -1.976188 -9.087558 1.280370 -0.153220 0.050360 0.300180 -3.740526 -1.987380 -10.979602 22.860368 -1.833991 26.311024 -8.291698 4.920747 -3.872127 6.304527 -4.533163 -12.507933 -10.546405 5.581364 44.930297 -11.988090 4.596080 -20.807890 -34.360343 -9.891292 3.420951 -47.963987 12.180343 -7.543043 -4.728300 -5.877021 -1.622588 -3.583100 2.478730 1.020250 -0.114260 0.275270 0.148830 20.774114 18.278135 9.581773 55.275975 3.168473 -7.530814 103.578499 49.302489 44.279350 2.263380 -1.582245 -0.262880 0.302120 0.070670 -0.347890 
-1.550660 15.643680 -5.293870 -1.612474 -14.865364 -2.398875 -15.880016 8.876669 7.163821 40.269459 8.905795 -40.223010 -56.686065 40.019956 33.443249 1.678383 13.383699 0.140996 0.383710 -0.088620 0.443660 18.508987 -6.130544 4.486638 -47.571175 8.591124 -19.837268 68.057757 -21.816536 14.221273 -2.023065 -8.994579 1.280118 -0.148850 -0.047860 0.310760 -3.504541 -2.501918 -11.042899 23.360703 -1.644396 28.084121 -6.400660 5.520333 -3.915348 6.505165 -5.726988 -13.291154 -13.462498 6.525381 46.699842 -12.017570 3.737390 -23.774960 -35.215599 -10.520772 3.476310 -51.244108 12.213597 -8.050735 -0.991650 -5.912035 -1.528503 -3.516773 2.514818 1.068420 -0.200120 0.340820 0.127270 21.577001 20.486439 10.592316 54.869482 3.046638 -7.991090 107.940936 50.979711 49.029601 2.308900 -1.535551 -0.207660 0.265560 0.059250 -0.352280 
-1.543330 15.629480 -5.312600 -1.466517 -15.263565 -2.747929 -15.959816 9.046889 7.119337 39.328256 8.986290 -40.664190 -54.718524 41.211930 35.982776 1.694886 13.563343 0.070872 0.393000 -0.087270 0.468130 18.425417 -5.936174 4.564592 -48.290710 9.364922 -19.325117 69.299753 -20.873685 13.054277 -2.053002 -8.872512 1.299980 -0.158280 -0.090650 0.316280 -3.272597 -2.983739 -11.096332 23.940260 -1.266960 29.726183 -4.658229 6.294339 -3.787447 6.843449 -6.537723 -13.973247 -15.534277 7.103216 47.844794 -12.861510 3.102790 -26.644840 -36.222334 -11.199063 3.542071 -53.613794 12.299443 -8.410117 1.498944 -5.914208 -1.489376 -3.480790 2.485271 1.129210 -0.254370 0.391930 0.112380 22.226526 22.459940 11.534483 54.331395 2.927891 -8.662036 110.913741 52.814412 53.068795 2.346236 -1.431258 -0.204610 0.284440 0.068090 -0.362090 
